<?xml version="1.0" encoding="utf-8" standalone="no"?>
<!DOCTYPE svg PUBLIC "-//W3C//DTD SVG 1.1//EN"
  "http://www.w3.org/Graphics/SVG/1.1/DTD/svg11.dtd">
<svg xmlns:xlink="http://www.w3.org/1999/xlink" width="512.020435pt" height="335.782207pt" viewBox="0 0 512.020435 335.782207" xmlns="http://www.w3.org/2000/svg" version="1.1">
 <metadata>
  <rdf:RDF xmlns:dc="http://purl.org/dc/elements/1.1/" xmlns:cc="http://creativecommons.org/ns#" xmlns:rdf="http://www.w3.org/1999/02/22-rdf-syntax-ns#">
   <cc:Work>
    <dc:type rdf:resource="http://purl.org/dc/dcmitype/StillImage"/>
    <dc:date>2023-02-22T23:20:05.153968</dc:date>
    <dc:format>image/svg+xml</dc:format>
    <dc:creator>
     <cc:Agent>
      <dc:title>Matplotlib v3.6.0, https://matplotlib.org/</dc:title>
     </cc:Agent>
    </dc:creator>
   </cc:Work>
  </rdf:RDF>
 </metadata>
 <defs>
  <style type="text/css">*{stroke-linejoin: round; stroke-linecap: butt}</style>
 </defs>
 <g id="figure_1">
  <g id="patch_1">
   <path d="M 0 335.782207 
L 512.020435 335.782207 
L 512.020435 0 
L 0 0 
z
" style="fill: #ffffff"/>
  </g>
  <g id="axes_1">
   <g id="patch_2">
    <path d="M 58.420435 289.242938 
L 504.820435 289.242938 
L 504.820435 12.042938 
L 58.420435 12.042938 
z
" style="fill: #ffffff"/>
   </g>
   <g id="matplotlib.axis_1">
    <g id="xtick_1">
     <g id="line2d_1">
      <defs>
       <path id="mf7c9cf9f31" d="M 0 0 
L 0 3.5 
" style="stroke: #000000; stroke-width: 0.8"/>
      </defs>
      <g>
       <use xlink:href="#mf7c9cf9f31" x="78.711344" y="289.242938" style="stroke: #000000; stroke-width: 0.8"/>
      </g>
     </g>
     <g id="text_1">
      <!-- $\mathdefault{1}$ -->
      <g transform="translate(75.2971 305.928815) scale(0.14 -0.14)">
       <defs>
        <path id="CMR17-31" d="M 1702 4058 
C 1702 4192 1696 4192 1606 4192 
C 1357 3916 979 3827 621 3827 
C 602 3827 570 3827 563 3808 
C 557 3795 557 3782 557 3648 
C 755 3648 1088 3686 1344 3839 
L 1344 461 
C 1344 236 1331 160 781 160 
L 589 160 
L 589 0 
C 896 0 1216 0 1523 0 
C 1830 0 2150 0 2458 0 
L 2458 160 
L 2266 160 
C 1715 160 1702 230 1702 458 
L 1702 4058 
z
" transform="scale(0.015625)"/>
       </defs>
       <use xlink:href="#CMR17-31" transform="scale(0.996264)"/>
      </g>
     </g>
    </g>
    <g id="xtick_2">
     <g id="line2d_2">
      <g>
       <use xlink:href="#mf7c9cf9f31" x="121.429047" y="289.242938" style="stroke: #000000; stroke-width: 0.8"/>
      </g>
     </g>
     <g id="text_2">
      <!-- $\mathdefault{3}$ -->
      <g transform="translate(118.014803 305.928815) scale(0.14 -0.14)">
       <defs>
        <path id="CMR17-33" d="M 1414 2157 
C 1984 2157 2234 1662 2234 1090 
C 2234 320 1824 25 1453 25 
C 1114 25 563 194 390 693 
C 422 680 454 680 486 680 
C 640 680 755 782 755 948 
C 755 1133 614 1216 486 1216 
C 378 1216 211 1165 211 926 
C 211 335 787 -128 1466 -128 
C 2176 -128 2720 430 2720 1085 
C 2720 1707 2208 2157 1600 2227 
C 2086 2328 2554 2756 2554 3329 
C 2554 3820 2048 4179 1472 4179 
C 890 4179 378 3829 378 3329 
C 378 3110 544 3072 627 3072 
C 762 3072 877 3155 877 3321 
C 877 3486 762 3569 627 3569 
C 602 3569 570 3569 544 3557 
C 730 3959 1235 4032 1459 4032 
C 1683 4032 2106 3925 2106 3320 
C 2106 3143 2080 2828 1862 2550 
C 1670 2304 1453 2304 1242 2284 
C 1210 2284 1062 2269 1037 2269 
C 992 2263 966 2257 966 2208 
C 966 2163 973 2157 1101 2157 
L 1414 2157 
z
" transform="scale(0.015625)"/>
       </defs>
       <use xlink:href="#CMR17-33" transform="scale(0.996264)"/>
      </g>
     </g>
    </g>
    <g id="xtick_3">
     <g id="line2d_3">
      <g>
       <use xlink:href="#mf7c9cf9f31" x="164.146751" y="289.242938" style="stroke: #000000; stroke-width: 0.8"/>
      </g>
     </g>
     <g id="text_3">
      <!-- $\mathdefault{5}$ -->
      <g transform="translate(160.732506 305.928815) scale(0.14 -0.14)">
       <defs>
        <path id="CMR17-35" d="M 730 3692 
C 794 3666 1056 3584 1325 3584 
C 1920 3584 2246 3911 2432 4100 
C 2432 4157 2432 4192 2394 4192 
C 2387 4192 2374 4192 2323 4163 
C 2099 4058 1837 3973 1517 3973 
C 1325 3973 1037 3999 723 4139 
C 653 4171 640 4171 634 4171 
C 602 4171 595 4164 595 4037 
L 595 2203 
C 595 2089 595 2057 659 2057 
C 691 2057 704 2070 736 2114 
C 941 2401 1222 2522 1542 2522 
C 1766 2522 2246 2382 2246 1289 
C 2246 1085 2246 715 2054 421 
C 1894 159 1645 25 1370 25 
C 947 25 518 320 403 814 
C 429 807 480 795 506 795 
C 589 795 749 840 749 1038 
C 749 1210 627 1280 506 1280 
C 358 1280 262 1190 262 1011 
C 262 454 704 -128 1382 -128 
C 2042 -128 2669 440 2669 1264 
C 2669 2030 2170 2624 1549 2624 
C 1222 2624 947 2503 730 2274 
L 730 3692 
z
" transform="scale(0.015625)"/>
       </defs>
       <use xlink:href="#CMR17-35" transform="scale(0.996264)"/>
      </g>
     </g>
    </g>
    <g id="xtick_4">
     <g id="line2d_4">
      <g>
       <use xlink:href="#mf7c9cf9f31" x="206.864454" y="289.242938" style="stroke: #000000; stroke-width: 0.8"/>
      </g>
     </g>
     <g id="text_4">
      <!-- $\mathdefault{7}$ -->
      <g transform="translate(203.45021 305.928815) scale(0.14 -0.14)">
       <defs>
        <path id="CMR17-37" d="M 2886 3941 
L 2886 4081 
L 1382 4081 
C 634 4081 621 4165 595 4288 
L 480 4288 
L 294 3094 
L 410 3094 
C 429 3215 474 3540 550 3661 
C 589 3712 1062 3712 1171 3712 
L 2579 3712 
L 1869 2661 
C 1395 1954 1069 999 1069 165 
C 1069 89 1069 -128 1299 -128 
C 1530 -128 1530 89 1530 171 
L 1530 465 
C 1530 1508 1709 2196 2003 2636 
L 2886 3941 
z
" transform="scale(0.015625)"/>
       </defs>
       <use xlink:href="#CMR17-37" transform="scale(0.996264)"/>
      </g>
     </g>
    </g>
    <g id="xtick_5">
     <g id="line2d_5">
      <g>
       <use xlink:href="#mf7c9cf9f31" x="249.582157" y="289.242938" style="stroke: #000000; stroke-width: 0.8"/>
      </g>
     </g>
     <g id="text_5">
      <!-- $\mathdefault{9}$ -->
      <g transform="translate(246.167913 305.928815) scale(0.14 -0.14)">
       <defs>
        <path id="CMR17-39" d="M 2253 1864 
C 2253 464 1670 31 1190 31 
C 1043 31 685 31 538 294 
C 704 268 826 357 826 518 
C 826 692 685 749 595 749 
C 538 749 365 723 365 506 
C 365 71 742 -128 1203 -128 
C 1939 -128 2688 674 2688 2073 
C 2688 3817 1971 4179 1485 4179 
C 851 4179 243 3628 243 2778 
C 243 1991 762 1408 1414 1408 
C 1952 1408 2189 1903 2253 2112 
L 2253 1864 
z
M 1427 1510 
C 1254 1510 1011 1542 813 1922 
C 678 2169 678 2461 678 2771 
C 678 3146 678 3405 858 3684 
C 947 3817 1114 4032 1485 4032 
C 2240 4032 2240 2885 2240 2632 
C 2240 2182 2035 1510 1427 1510 
z
" transform="scale(0.015625)"/>
       </defs>
       <use xlink:href="#CMR17-39" transform="scale(0.996264)"/>
      </g>
     </g>
    </g>
    <g id="xtick_6">
     <g id="line2d_6">
      <g>
       <use xlink:href="#mf7c9cf9f31" x="292.299861" y="289.242938" style="stroke: #000000; stroke-width: 0.8"/>
      </g>
     </g>
     <g id="text_6">
      <!-- $\mathdefault{11}$ -->
      <g transform="translate(285.471372 305.928815) scale(0.14 -0.14)">
       <use xlink:href="#CMR17-31" transform="scale(0.996264)"/>
       <use xlink:href="#CMR17-31" transform="translate(45.690477 0) scale(0.996264)"/>
      </g>
     </g>
    </g>
    <g id="xtick_7">
     <g id="line2d_7">
      <g>
       <use xlink:href="#mf7c9cf9f31" x="335.017564" y="289.242938" style="stroke: #000000; stroke-width: 0.8"/>
      </g>
     </g>
     <g id="text_7">
      <!-- $\mathdefault{13}$ -->
      <g transform="translate(328.189076 305.928815) scale(0.14 -0.14)">
       <use xlink:href="#CMR17-31" transform="scale(0.996264)"/>
       <use xlink:href="#CMR17-33" transform="translate(45.690477 0) scale(0.996264)"/>
      </g>
     </g>
    </g>
    <g id="xtick_8">
     <g id="line2d_8">
      <g>
       <use xlink:href="#mf7c9cf9f31" x="377.735268" y="289.242938" style="stroke: #000000; stroke-width: 0.8"/>
      </g>
     </g>
     <g id="text_8">
      <!-- $\mathdefault{15}$ -->
      <g transform="translate(370.906779 305.928815) scale(0.14 -0.14)">
       <use xlink:href="#CMR17-31" transform="scale(0.996264)"/>
       <use xlink:href="#CMR17-35" transform="translate(45.690477 0) scale(0.996264)"/>
      </g>
     </g>
    </g>
    <g id="xtick_9">
     <g id="line2d_9">
      <g>
       <use xlink:href="#mf7c9cf9f31" x="420.452971" y="289.242938" style="stroke: #000000; stroke-width: 0.8"/>
      </g>
     </g>
     <g id="text_9">
      <!-- $\mathdefault{17}$ -->
      <g transform="translate(413.624482 305.928815) scale(0.14 -0.14)">
       <use xlink:href="#CMR17-31" transform="scale(0.996264)"/>
       <use xlink:href="#CMR17-37" transform="translate(45.690477 0) scale(0.996264)"/>
      </g>
     </g>
    </g>
    <g id="xtick_10">
     <g id="line2d_10">
      <g>
       <use xlink:href="#mf7c9cf9f31" x="463.170674" y="289.242938" style="stroke: #000000; stroke-width: 0.8"/>
      </g>
     </g>
     <g id="text_10">
      <!-- $\mathdefault{19}$ -->
      <g transform="translate(456.342186 305.928815) scale(0.14 -0.14)">
       <use xlink:href="#CMR17-31" transform="scale(0.996264)"/>
       <use xlink:href="#CMR17-39" transform="translate(45.690477 0) scale(0.996264)"/>
      </g>
     </g>
    </g>
    <g id="text_11">
     <!-- Number of Experiments -->
     <g transform="translate(195.341115 325.094143) scale(0.18 -0.18)">
      <defs>
       <path id="CMR17-4e" d="M 1312 4250 
C 1267 4320 1261 4320 1139 4320 
L 326 4320 
L 326 4160 
L 448 4160 
C 704 4160 819 4129 838 4122 
L 838 610 
C 838 451 838 153 326 153 
L 326 -13 
C 474 0 742 0 902 0 
C 1062 0 1331 0 1478 -13 
L 1478 153 
C 966 153 966 451 966 610 
L 966 4033 
C 1011 3995 1011 3982 1056 3919 
L 3430 76 
C 3475 0 3494 0 3526 0 
C 3590 0 3590 19 3590 139 
L 3590 3705 
C 3590 3863 3590 4160 4102 4160 
L 4102 4326 
C 3955 4320 3686 4320 3526 4320 
C 3366 4320 3098 4320 2950 4326 
L 2950 4160 
C 3462 4160 3462 3862 3462 3703 
L 3462 763 
L 1312 4250 
z
" transform="scale(0.015625)"/>
       <path id="CMR17-75" d="M 1882 2693 
L 1882 2528 
C 2259 2528 2317 2489 2317 2186 
L 2317 1032 
C 2317 500 2029 38 1555 38 
C 1030 38 986 348 986 678 
L 986 2763 
L 211 2693 
L 211 2528 
C 467 2528 640 2528 646 2274 
L 646 1058 
C 646 633 646 361 813 183 
C 896 101 1056 -64 1517 -64 
C 2061 -64 2272 377 2323 506 
L 2330 506 
L 2330 -63 
L 3091 -63 
L 3091 128 
C 2714 128 2656 166 2656 473 
L 2656 2763 
L 1882 2693 
z
" transform="scale(0.015625)"/>
       <path id="CMR17-6d" d="M 4326 1933 
C 4326 2252 4269 2790 3507 2790 
C 3072 2790 2771 2496 2656 2151 
L 2650 2151 
C 2573 2676 2195 2790 1837 2790 
C 1331 2790 1069 2400 973 2144 
L 966 2144 
L 966 2790 
L 211 2720 
L 211 2554 
C 589 2554 646 2515 646 2208 
L 646 428 
C 646 184 621 153 211 153 
L 211 -13 
C 365 0 646 0 813 0 
C 979 0 1267 0 1421 -13 
L 1421 153 
C 1011 153 986 178 986 428 
L 986 1658 
C 986 2247 1344 2688 1792 2688 
C 2266 2688 2317 2266 2317 1958 
L 2317 428 
C 2317 184 2291 153 1882 153 
L 1882 -13 
C 2035 0 2317 0 2483 0 
C 2650 0 2938 0 3091 -13 
L 3091 153 
C 2682 153 2656 178 2656 428 
L 2656 1658 
C 2656 2247 3014 2688 3462 2688 
C 3936 2688 3987 2266 3987 1958 
L 3987 428 
C 3987 184 3962 153 3552 153 
L 3552 -13 
C 3706 0 3987 0 4154 0 
C 4320 0 4608 0 4762 -13 
L 4762 153 
C 4352 153 4326 178 4326 428 
L 4326 1933 
z
" transform="scale(0.015625)"/>
       <path id="CMR17-62" d="M 960 4396 
L 198 4326 
L 198 4160 
C 576 4160 634 4122 634 3817 
L 634 -13 
L 749 -13 
L 934 441 
C 1120 141 1395 -64 1766 -64 
C 2406 -64 3053 500 3053 1370 
C 3053 2188 2477 2790 1830 2790 
C 1434 2790 1152 2579 960 2330 
L 960 4396 
z
M 973 2004 
C 973 2118 973 2138 1062 2272 
C 1312 2657 1670 2688 1792 2688 
C 1984 2688 2643 2585 2643 1376 
C 2643 108 1888 38 1734 38 
C 1536 38 1248 114 1043 486 
C 973 608 973 621 973 735 
L 973 2004 
z
" transform="scale(0.015625)"/>
       <path id="CMR17-65" d="M 2438 1472 
C 2464 1498 2464 1511 2464 1576 
C 2464 2238 2118 2816 1389 2816 
C 710 2816 173 2169 173 1383 
C 173 551 781 -64 1459 -64 
C 2176 -64 2458 607 2458 740 
C 2458 784 2419 784 2406 784 
C 2362 784 2355 771 2330 696 
C 2189 265 1837 51 1504 51 
C 1229 51 954 203 781 480 
C 582 803 582 1176 582 1472 
L 2438 1472 
z
M 589 1568 
C 634 2505 1126 2714 1382 2714 
C 1818 2714 2112 2297 2118 1568 
L 589 1568 
z
" transform="scale(0.015625)"/>
       <path id="CMR17-72" d="M 960 1497 
C 960 2112 1222 2688 1702 2688 
C 1747 2688 1792 2682 1837 2662 
C 1837 2662 1696 2617 1696 2452 
C 1696 2298 1818 2234 1914 2234 
C 1990 2234 2131 2279 2131 2458 
C 2131 2663 1926 2790 1709 2790 
C 1222 2790 1011 2317 947 2093 
L 941 2093 
L 941 2790 
L 198 2720 
L 198 2554 
C 576 2554 634 2515 634 2208 
L 634 428 
C 634 184 608 153 198 153 
L 198 -13 
C 352 0 646 0 813 0 
C 998 0 1325 0 1498 -13 
L 1498 153 
C 1037 153 960 153 960 440 
L 960 1497 
z
" transform="scale(0.015625)"/>
       <path id="CMR17-6f" d="M 2758 1356 
C 2758 2176 2163 2816 1466 2816 
C 768 2816 173 2176 173 1356 
C 173 551 768 -64 1466 -64 
C 2163 -64 2758 551 2758 1356 
z
M 1466 51 
C 1165 51 909 230 762 480 
C 602 767 582 1126 582 1408 
C 582 1677 595 2010 762 2298 
C 890 2509 1139 2714 1466 2714 
C 1754 2714 1997 2554 2150 2330 
C 2349 2029 2349 1607 2349 1408 
C 2349 1158 2336 775 2163 467 
C 1984 173 1709 51 1466 51 
z
" transform="scale(0.015625)"/>
       <path id="CMR17-66" d="M 979 2560 
L 1709 2560 
L 1709 2725 
L 966 2725 
L 966 3494 
C 966 4022 1235 4352 1510 4352 
C 1594 4352 1690 4327 1754 4282 
C 1702 4269 1568 4225 1568 4067 
C 1568 3901 1696 3850 1786 3850 
C 1875 3850 2003 3901 2003 4067 
C 2003 4308 1773 4454 1517 4454 
C 1152 4454 653 4156 653 3481 
L 653 2725 
L 141 2725 
L 141 2560 
L 653 2560 
L 653 427 
C 653 184 627 153 218 153 
L 218 -13 
C 371 0 666 0 832 0 
C 1018 0 1344 0 1517 -13 
L 1517 153 
C 1056 153 979 153 979 439 
L 979 2560 
z
" transform="scale(0.015625)"/>
       <path id="CMR17-45" d="M 3885 1615 
L 3770 1615 
C 3629 676 3546 166 2419 166 
L 1530 166 
C 1274 166 1261 197 1261 414 
L 1261 2176 
L 1862 2176 
C 2464 2176 2522 1960 2522 1430 
L 2637 1430 
L 2637 3081 
L 2522 3081 
C 2522 2557 2464 2342 1862 2342 
L 1261 2342 
L 1261 3913 
C 1261 4128 1274 4160 1530 4160 
L 2406 4160 
C 3398 4160 3514 3769 3603 2929 
L 3718 2929 
L 3565 4325 
L 326 4325 
L 326 4160 
C 768 4160 838 4160 838 3874 
L 838 451 
C 838 166 768 166 326 166 
L 326 0 
L 3654 0 
L 3885 1615 
z
" transform="scale(0.015625)"/>
       <path id="CMR17-78" d="M 1664 1477 
C 1856 1726 2074 2006 2253 2216 
C 2464 2458 2707 2560 2989 2560 
L 2989 2726 
C 2880 2726 2656 2726 2541 2726 
C 2368 2726 2170 2726 2022 2732 
L 2022 2566 
C 2112 2553 2163 2489 2163 2400 
C 2163 2285 2099 2215 2067 2171 
L 1594 1573 
L 1030 2306 
C 973 2376 973 2388 973 2420 
C 973 2497 1037 2560 1146 2560 
L 1146 2732 
C 992 2726 717 2726 557 2726 
C 384 2726 179 2726 38 2732 
L 38 2560 
C 384 2560 461 2534 614 2343 
L 1350 1395 
C 1363 1382 1395 1344 1395 1325 
C 1395 1299 838 619 768 530 
C 480 185 179 160 6 160 
L 6 0 
C 115 0 339 0 454 0 
C 582 0 864 0 979 -6 
L 979 160 
C 941 166 838 179 838 325 
C 838 440 890 510 947 586 
L 1478 1236 
L 2035 512 
C 2086 442 2163 346 2163 301 
C 2163 211 2086 160 1984 160 
L 1984 -6 
C 2138 0 2413 0 2573 0 
C 2746 0 2950 0 3091 -6 
L 3091 160 
C 2771 160 2675 172 2522 370 
L 1664 1477 
z
" transform="scale(0.015625)"/>
       <path id="CMR17-70" d="M 1408 -1063 
C 998 -1063 973 -1037 973 -789 
L 973 402 
C 1158 134 1427 -38 1766 -38 
C 2406 -38 3053 523 3053 1388 
C 3053 2191 2496 2802 1837 2802 
C 1453 2802 1139 2592 960 2338 
L 960 2802 
L 198 2732 
L 198 2567 
C 576 2567 634 2528 634 2223 
L 634 -789 
C 634 -1031 608 -1063 198 -1063 
L 198 -1228 
C 352 -1216 634 -1216 800 -1216 
C 966 -1216 1254 -1216 1408 -1228 
L 1408 -1063 
z
M 973 2012 
C 973 2102 973 2235 1222 2471 
C 1254 2497 1472 2688 1792 2688 
C 2259 2688 2643 2108 2643 1382 
C 2643 656 2234 64 1728 64 
C 1498 64 1248 172 1056 472 
C 973 612 973 650 973 752 
L 973 2012 
z
" transform="scale(0.015625)"/>
       <path id="CMR17-69" d="M 992 3909 
C 992 4049 877 4170 730 4170 
C 589 4170 467 4056 467 3909 
C 467 3769 582 3648 730 3648 
C 870 3648 992 3763 992 3909 
z
M 243 2706 
L 243 2541 
C 602 2541 653 2502 653 2197 
L 653 427 
C 653 184 627 153 218 153 
L 218 -13 
C 371 0 646 0 806 0 
C 960 0 1222 0 1370 -13 
L 1370 153 
C 992 153 979 191 979 420 
L 979 2776 
L 243 2706 
z
" transform="scale(0.015625)"/>
       <path id="CMR17-6e" d="M 2656 1933 
C 2656 2259 2592 2790 1837 2790 
C 1331 2790 1069 2400 973 2144 
L 966 2144 
L 966 2790 
L 211 2720 
L 211 2554 
C 589 2554 646 2515 646 2208 
L 646 428 
C 646 184 621 153 211 153 
L 211 -13 
C 365 0 646 0 813 0 
C 979 0 1267 0 1421 -13 
L 1421 153 
C 1011 153 986 178 986 428 
L 986 1658 
C 986 2247 1344 2688 1792 2688 
C 2266 2688 2317 2266 2317 1958 
L 2317 428 
C 2317 184 2291 153 1882 153 
L 1882 -13 
C 2035 0 2317 0 2483 0 
C 2650 0 2938 0 3091 -13 
L 3091 153 
C 2682 153 2656 178 2656 428 
L 2656 1933 
z
" transform="scale(0.015625)"/>
       <path id="CMR17-74" d="M 966 2560 
L 1862 2560 
L 1862 2725 
L 966 2725 
L 966 3904 
L 851 3904 
C 838 3245 614 2668 70 2668 
L 70 2560 
L 627 2560 
L 627 771 
C 627 650 627 -64 1370 -64 
C 1747 -64 1965 306 1965 777 
L 1965 1140 
L 1850 1140 
L 1850 783 
C 1850 344 1677 51 1408 51 
C 1222 51 966 178 966 758 
L 966 2560 
z
" transform="scale(0.015625)"/>
       <path id="CMR17-73" d="M 1978 2697 
C 1978 2813 1971 2819 1933 2819 
C 1907 2819 1901 2813 1824 2717 
C 1805 2691 1747 2626 1728 2601 
C 1523 2819 1235 2819 1126 2819 
C 416 2819 160 2447 160 2076 
C 160 1498 813 1365 998 1325 
C 1402 1243 1542 1217 1677 1101 
C 1760 1025 1901 884 1901 654 
C 1901 384 1747 38 1158 38 
C 602 38 403 460 288 1021 
C 269 1110 269 1117 218 1117 
C 166 1117 160 1110 160 983 
L 160 63 
C 160 -51 166 -58 205 -58 
C 237 -58 243 -51 275 0 
C 314 57 410 211 448 276 
C 576 103 800 -64 1158 -64 
C 1792 -64 2131 283 2131 784 
C 2131 1112 1958 1285 1875 1362 
C 1683 1561 1459 1606 1190 1657 
C 838 1735 390 1825 390 2217 
C 390 2383 480 2737 1126 2737 
C 1811 2737 1850 2094 1862 1888 
C 1869 1856 1901 1849 1920 1849 
C 1978 1849 1978 1869 1978 1978 
L 1978 2697 
z
" transform="scale(0.015625)"/>
      </defs>
      <use xlink:href="#CMR17-4e" transform="scale(0.996264)"/>
      <use xlink:href="#CMR17-75" transform="translate(69.07243 0) scale(0.996264)"/>
      <use xlink:href="#CMR17-6d" transform="translate(119.9678 0) scale(0.996264)"/>
      <use xlink:href="#CMR17-62" transform="translate(194.284936 0) scale(0.996264)"/>
      <use xlink:href="#CMR17-65" transform="translate(247.782744 0) scale(0.996264)"/>
      <use xlink:href="#CMR17-72" transform="translate(288.268404 0) scale(0.996264)"/>
      <use xlink:href="#CMR17-6f" transform="translate(353.625139 0) scale(0.996264)"/>
      <use xlink:href="#CMR17-66" transform="translate(399.315616 0) scale(0.996264)"/>
      <use xlink:href="#CMR17-45" transform="translate(456.865095 0) scale(0.996264)"/>
      <use xlink:href="#CMR17-78" transform="translate(519.451395 0) scale(0.996264)"/>
      <use xlink:href="#CMR17-70" transform="translate(567.744311 0) scale(0.996264)"/>
      <use xlink:href="#CMR17-65" transform="translate(621.242119 0) scale(0.996264)"/>
      <use xlink:href="#CMR17-72" transform="translate(661.72778 0) scale(0.996264)"/>
      <use xlink:href="#CMR17-69" transform="translate(697.008548 0) scale(0.996264)"/>
      <use xlink:href="#CMR17-6d" transform="translate(721.879606 0) scale(0.996264)"/>
      <use xlink:href="#CMR17-65" transform="translate(798.799196 0) scale(0.996264)"/>
      <use xlink:href="#CMR17-6e" transform="translate(839.284856 0) scale(0.996264)"/>
      <use xlink:href="#CMR17-74" transform="translate(887.577772 0) scale(0.996264)"/>
      <use xlink:href="#CMR17-73" transform="translate(922.85854 0) scale(0.996264)"/>
     </g>
    </g>
   </g>
   <g id="matplotlib.axis_2">
    <g id="ytick_1">
     <g id="line2d_11">
      <defs>
       <path id="mc84c24038f" d="M 0 0 
L -3.5 0 
" style="stroke: #000000; stroke-width: 0.8"/>
      </defs>
      <g>
       <use xlink:href="#mc84c24038f" x="58.420435" y="289.242938" style="stroke: #000000; stroke-width: 0.8"/>
      </g>
     </g>
     <g id="text_12">
      <!-- $\mathdefault{0.50}$ -->
      <g transform="translate(27.141364 294.085876) scale(0.14 -0.14)">
       <defs>
        <path id="CMR17-30" d="M 2688 2025 
C 2688 2416 2682 3080 2413 3591 
C 2176 4039 1798 4198 1466 4198 
C 1158 4198 768 4058 525 3597 
C 269 3118 243 2524 243 2025 
C 243 1661 250 1106 448 619 
C 723 -39 1216 -128 1466 -128 
C 1760 -128 2208 -7 2470 600 
C 2662 1042 2688 1559 2688 2025 
z
M 1466 -26 
C 1056 -26 813 325 723 812 
C 653 1188 653 1738 653 2096 
C 653 2588 653 2997 736 3387 
C 858 3929 1216 4096 1466 4096 
C 1728 4096 2067 3923 2189 3400 
C 2272 3036 2278 2607 2278 2096 
C 2278 1680 2278 1169 2202 792 
C 2067 95 1690 -26 1466 -26 
z
" transform="scale(0.015625)"/>
        <path id="CMMI12-3a" d="M 1178 307 
C 1178 492 1024 619 870 619 
C 685 619 557 466 557 313 
C 557 128 710 0 864 0 
C 1050 0 1178 153 1178 307 
z
" transform="scale(0.015625)"/>
       </defs>
       <use xlink:href="#CMR17-30" transform="scale(0.996264)"/>
       <use xlink:href="#CMMI12-3a" transform="translate(45.690477 0) scale(0.996264)"/>
       <use xlink:href="#CMR17-35" transform="translate(72.787654 0) scale(0.996264)"/>
       <use xlink:href="#CMR17-30" transform="translate(118.478131 0) scale(0.996264)"/>
      </g>
     </g>
    </g>
    <g id="ytick_2">
     <g id="line2d_12">
      <g>
       <use xlink:href="#mc84c24038f" x="58.420435" y="243.042938" style="stroke: #000000; stroke-width: 0.8"/>
      </g>
     </g>
     <g id="text_13">
      <!-- $\mathdefault{0.55}$ -->
      <g transform="translate(27.141364 247.885876) scale(0.14 -0.14)">
       <use xlink:href="#CMR17-30" transform="scale(0.996264)"/>
       <use xlink:href="#CMMI12-3a" transform="translate(45.690477 0) scale(0.996264)"/>
       <use xlink:href="#CMR17-35" transform="translate(72.787654 0) scale(0.996264)"/>
       <use xlink:href="#CMR17-35" transform="translate(118.478131 0) scale(0.996264)"/>
      </g>
     </g>
    </g>
    <g id="ytick_3">
     <g id="line2d_13">
      <g>
       <use xlink:href="#mc84c24038f" x="58.420435" y="196.842938" style="stroke: #000000; stroke-width: 0.8"/>
      </g>
     </g>
     <g id="text_14">
      <!-- $\mathdefault{0.60}$ -->
      <g transform="translate(27.141364 201.685876) scale(0.14 -0.14)">
       <defs>
        <path id="CMR17-36" d="M 678 2176 
C 678 3690 1395 4032 1811 4032 
C 1946 4032 2272 4009 2400 3776 
C 2298 3776 2106 3776 2106 3553 
C 2106 3381 2246 3323 2336 3323 
C 2394 3323 2566 3348 2566 3560 
C 2566 3954 2246 4179 1805 4179 
C 1043 4179 243 3390 243 1984 
C 243 253 966 -128 1478 -128 
C 2099 -128 2688 427 2688 1283 
C 2688 2081 2170 2662 1517 2662 
C 1126 2662 838 2407 678 1960 
L 678 2176 
z
M 1478 25 
C 691 25 691 1200 691 1436 
C 691 1896 909 2560 1504 2560 
C 1613 2560 1926 2560 2138 2120 
C 2253 1870 2253 1609 2253 1289 
C 2253 944 2253 690 2118 434 
C 1978 171 1773 25 1478 25 
z
" transform="scale(0.015625)"/>
       </defs>
       <use xlink:href="#CMR17-30" transform="scale(0.996264)"/>
       <use xlink:href="#CMMI12-3a" transform="translate(45.690477 0) scale(0.996264)"/>
       <use xlink:href="#CMR17-36" transform="translate(72.787654 0) scale(0.996264)"/>
       <use xlink:href="#CMR17-30" transform="translate(118.478131 0) scale(0.996264)"/>
      </g>
     </g>
    </g>
    <g id="ytick_4">
     <g id="line2d_14">
      <g>
       <use xlink:href="#mc84c24038f" x="58.420435" y="150.642938" style="stroke: #000000; stroke-width: 0.8"/>
      </g>
     </g>
     <g id="text_15">
      <!-- $\mathdefault{0.65}$ -->
      <g transform="translate(27.141364 155.485876) scale(0.14 -0.14)">
       <use xlink:href="#CMR17-30" transform="scale(0.996264)"/>
       <use xlink:href="#CMMI12-3a" transform="translate(45.690477 0) scale(0.996264)"/>
       <use xlink:href="#CMR17-36" transform="translate(72.787654 0) scale(0.996264)"/>
       <use xlink:href="#CMR17-35" transform="translate(118.478131 0) scale(0.996264)"/>
      </g>
     </g>
    </g>
    <g id="ytick_5">
     <g id="line2d_15">
      <g>
       <use xlink:href="#mc84c24038f" x="58.420435" y="104.442938" style="stroke: #000000; stroke-width: 0.8"/>
      </g>
     </g>
     <g id="text_16">
      <!-- $\mathdefault{0.70}$ -->
      <g transform="translate(27.141364 109.285876) scale(0.14 -0.14)">
       <use xlink:href="#CMR17-30" transform="scale(0.996264)"/>
       <use xlink:href="#CMMI12-3a" transform="translate(45.690477 0) scale(0.996264)"/>
       <use xlink:href="#CMR17-37" transform="translate(72.787654 0) scale(0.996264)"/>
       <use xlink:href="#CMR17-30" transform="translate(118.478131 0) scale(0.996264)"/>
      </g>
     </g>
    </g>
    <g id="ytick_6">
     <g id="line2d_16">
      <g>
       <use xlink:href="#mc84c24038f" x="58.420435" y="58.242938" style="stroke: #000000; stroke-width: 0.8"/>
      </g>
     </g>
     <g id="text_17">
      <!-- $\mathdefault{0.75}$ -->
      <g transform="translate(27.141364 63.085876) scale(0.14 -0.14)">
       <use xlink:href="#CMR17-30" transform="scale(0.996264)"/>
       <use xlink:href="#CMMI12-3a" transform="translate(45.690477 0) scale(0.996264)"/>
       <use xlink:href="#CMR17-37" transform="translate(72.787654 0) scale(0.996264)"/>
       <use xlink:href="#CMR17-35" transform="translate(118.478131 0) scale(0.996264)"/>
      </g>
     </g>
    </g>
    <g id="ytick_7">
     <g id="line2d_17">
      <g>
       <use xlink:href="#mc84c24038f" x="58.420435" y="12.042938" style="stroke: #000000; stroke-width: 0.8"/>
      </g>
     </g>
     <g id="text_18">
      <!-- $\mathdefault{0.80}$ -->
      <g transform="translate(27.141364 16.885876) scale(0.14 -0.14)">
       <defs>
        <path id="CMR17-38" d="M 1741 2264 
C 2144 2467 2554 2773 2554 3263 
C 2554 3841 1990 4179 1472 4179 
C 890 4179 378 3759 378 3180 
C 378 3021 416 2747 666 2505 
C 730 2442 998 2251 1171 2130 
C 883 1983 211 1634 211 934 
C 211 279 838 -128 1459 -128 
C 2144 -128 2720 362 2720 1010 
C 2720 1590 2330 1857 2074 2029 
L 1741 2264 
z
M 902 2822 
C 851 2854 595 3051 595 3351 
C 595 3739 998 4032 1459 4032 
C 1965 4032 2336 3676 2336 3262 
C 2336 2669 1670 2331 1638 2331 
C 1632 2331 1626 2331 1574 2370 
L 902 2822 
z
M 2080 1519 
C 2176 1449 2483 1240 2483 851 
C 2483 381 2010 25 1472 25 
C 890 25 448 438 448 940 
C 448 1443 838 1862 1280 2060 
L 2080 1519 
z
" transform="scale(0.015625)"/>
       </defs>
       <use xlink:href="#CMR17-30" transform="scale(0.996264)"/>
       <use xlink:href="#CMMI12-3a" transform="translate(45.690477 0) scale(0.996264)"/>
       <use xlink:href="#CMR17-38" transform="translate(72.787654 0) scale(0.996264)"/>
       <use xlink:href="#CMR17-30" transform="translate(118.478131 0) scale(0.996264)"/>
      </g>
     </g>
    </g>
    <g id="text_19">
     <!-- Average CSR -->
     <g transform="translate(19.6533 199.033054) rotate(-90) scale(0.18 -0.18)">
      <defs>
       <path id="CMR17-41" d="M 2323 4378 
C 2291 4461 2278 4480 2214 4480 
C 2150 4480 2138 4461 2106 4378 
L 749 566 
C 627 223 371 153 147 153 
L 147 -13 
C 262 0 518 0 640 0 
C 800 0 1056 0 1210 -13 
L 1210 153 
C 909 153 864 361 864 439 
C 864 497 877 530 890 569 
L 1229 1536 
L 2906 1536 
L 3290 442 
C 3322 365 3322 352 3322 327 
C 3322 153 3046 153 2925 153 
L 2925 0 
C 3110 0 3443 0 3642 0 
C 3808 0 4128 0 4282 -13 
L 4282 153 
C 3942 153 3827 153 3744 387 
L 2323 4378 
z
M 2067 3893 
L 2848 1702 
L 1286 1702 
L 2067 3893 
z
" transform="scale(0.015625)"/>
       <path id="CMR17-76" d="M 2502 2163 
C 2560 2304 2662 2560 3034 2560 
L 3034 2726 
C 2912 2726 2752 2726 2630 2726 
C 2496 2726 2285 2726 2157 2732 
L 2157 2566 
C 2317 2553 2406 2477 2406 2311 
C 2406 2253 2406 2240 2368 2151 
L 1664 377 
L 902 2286 
C 864 2369 864 2381 864 2407 
C 864 2560 1075 2560 1171 2560 
L 1171 2732 
C 1018 2726 736 2726 576 2726 
C 403 2726 205 2726 64 2732 
L 64 2560 
C 307 2560 442 2560 518 2362 
L 1446 44 
C 1485 -51 1491 -64 1549 -64 
C 1606 -64 1613 -51 1651 44 
L 2502 2163 
z
" transform="scale(0.015625)"/>
       <path id="CMR17-61" d="M 2304 1653 
C 2304 2072 2304 2294 2035 2543 
C 1798 2752 1523 2816 1306 2816 
C 800 2816 435 2407 435 1971 
C 435 1728 627 1728 666 1728 
C 749 1728 896 1778 896 1954 
C 896 2112 774 2181 666 2181 
C 640 2181 608 2174 589 2168 
C 723 2592 1069 2714 1293 2714 
C 1613 2714 1965 2429 1965 1885 
L 1965 1600 
C 1587 1600 1133 1549 774 1357 
C 371 1133 256 813 256 570 
C 256 77 832 -64 1171 -64 
C 1523 -64 1850 139 1990 511 
C 2003 233 2182 -18 2464 -18 
C 2598 -18 2938 70 2938 567 
L 2938 920 
L 2822 920 
L 2822 562 
C 2822 178 2650 128 2566 128 
C 2304 128 2304 458 2304 738 
L 2304 1653 
z
M 1965 870 
C 1965 317 1568 38 1216 38 
C 896 38 646 275 646 570 
C 646 761 730 1100 1101 1305 
C 1408 1478 1760 1504 1965 1504 
L 1965 870 
z
" transform="scale(0.015625)"/>
       <path id="CMR17-67" d="M 710 1164 
C 832 1068 1043 960 1299 960 
C 1805 960 2240 1357 2240 1888 
C 2240 2054 2189 2310 1997 2509 
C 2176 2692 2438 2752 2586 2752 
C 2611 2752 2650 2752 2682 2734 
C 2656 2728 2598 2703 2598 2605 
C 2598 2527 2656 2471 2739 2471 
C 2835 2471 2886 2533 2886 2614 
C 2886 2731 2790 2854 2586 2854 
C 2330 2854 2106 2738 1926 2580 
C 1734 2753 1504 2816 1299 2816 
C 794 2816 358 2419 358 1888 
C 358 1522 570 1292 634 1228 
C 442 1004 442 743 442 711 
C 442 545 506 302 723 168 
C 390 85 128 -169 128 -486 
C 128 -943 736 -1280 1466 -1280 
C 2170 -1280 2803 -956 2803 -479 
C 2803 384 1856 384 1363 384 
C 1216 384 954 384 922 391 
C 723 423 589 602 589 826 
C 589 883 589 1024 710 1164 
z
M 1299 1068 
C 736 1068 736 1760 736 1889 
C 736 2016 736 2708 1299 2708 
C 1862 2708 1862 2016 1862 1889 
C 1862 1760 1862 1068 1299 1068 
z
M 1466 -1171 
C 826 -1171 384 -835 384 -486 
C 384 -289 493 -105 634 -4 
C 794 104 858 104 1293 104 
C 1818 104 2547 104 2547 -486 
C 2547 -835 2106 -1171 1466 -1171 
z
" transform="scale(0.015625)"/>
       <path id="CMR17-43" d="M 3974 4289 
C 3974 4403 3968 4410 3930 4410 
C 3904 4410 3898 4403 3853 4327 
L 3571 3792 
C 3258 4187 2874 4416 2381 4416 
C 1286 4416 294 3456 294 2148 
C 294 826 1286 -128 2387 -128 
C 3366 -128 3974 730 3974 1461 
C 3974 1524 3974 1550 3917 1550 
C 3866 1550 3866 1531 3859 1474 
C 3808 585 3168 38 2477 38 
C 1824 38 781 495 781 2147 
C 781 3805 1843 4250 2464 4250 
C 3187 4250 3712 3628 3834 2745 
C 3846 2668 3846 2655 3904 2655 
C 3974 2655 3974 2668 3974 2783 
L 3974 4289 
z
" transform="scale(0.015625)"/>
       <path id="CMR17-53" d="M 2803 4290 
C 2803 4404 2797 4411 2758 4411 
C 2720 4411 2707 4385 2682 4328 
L 2490 3907 
C 2246 4257 1875 4416 1472 4416 
C 819 4416 294 3901 294 3253 
C 294 3056 339 2776 557 2510 
C 794 2218 1018 2167 1530 2033 
C 1722 1982 2042 1899 2106 1874 
C 2470 1722 2662 1341 2662 985 
C 2662 527 2336 38 1779 38 
C 1094 38 454 419 410 1311 
C 403 1413 397 1419 352 1419 
C 301 1419 294 1413 294 1285 
L 294 -1 
C 294 -115 301 -122 339 -122 
C 384 -122 397 -90 486 108 
C 493 127 493 140 614 381 
C 934 -39 1472 -128 1779 -128 
C 2477 -128 2970 451 2970 1124 
C 2970 1454 2848 1708 2778 1823 
C 2509 2230 2221 2306 1914 2382 
C 1869 2402 1856 2402 1498 2490 
C 1152 2579 1005 2624 845 2796 
C 666 2992 602 3196 602 3399 
C 602 3812 934 4263 1478 4263 
C 2157 4263 2579 3786 2675 2993 
C 2694 2878 2701 2872 2746 2872 
C 2803 2872 2803 2891 2803 2999 
L 2803 4290 
z
" transform="scale(0.015625)"/>
       <path id="CMR17-52" d="M 2509 2146 
C 3117 2268 3629 2676 3629 3186 
C 3629 3785 2950 4326 2054 4326 
L 333 4326 
L 333 4160 
C 774 4160 845 4160 845 3873 
L 845 415 
C 845 128 774 128 333 128 
L 333 -26 
C 518 -26 851 -26 1050 -26 
C 1248 -26 1581 -26 1766 -26 
L 1766 128 
C 1325 128 1254 128 1254 417 
L 1254 2112 
L 2003 2112 
C 2368 2112 2573 1964 2662 1881 
C 2918 1632 2918 1459 2918 1024 
C 2918 595 2918 377 3110 160 
C 3354 -102 3680 -128 3821 -128 
C 4294 -128 4365 396 4365 503 
C 4365 540 4365 585 4307 585 
C 4256 585 4250 547 4250 522 
C 4218 112 4032 -26 3834 -26 
C 3482 -26 3443 375 3405 764 
C 3386 898 3373 993 3360 1133 
C 3322 1452 3270 1917 2509 2146 
z
M 1984 2214 
L 1254 2214 
L 1254 3913 
C 1254 4129 1267 4160 1523 4160 
L 1990 4160 
C 2522 4160 3142 3977 3142 3190 
C 3142 2372 2464 2214 1984 2214 
z
" transform="scale(0.015625)"/>
      </defs>
      <use xlink:href="#CMR17-41" transform="scale(0.996264)"/>
      <use xlink:href="#CMR17-76" transform="translate(69.07243 0) scale(0.996264)"/>
      <use xlink:href="#CMR17-65" transform="translate(114.762892 0) scale(0.996264)"/>
      <use xlink:href="#CMR17-72" transform="translate(155.248552 0) scale(0.996264)"/>
      <use xlink:href="#CMR17-61" transform="translate(190.52932 0) scale(0.996264)"/>
      <use xlink:href="#CMR17-67" transform="translate(236.219797 0) scale(0.996264)"/>
      <use xlink:href="#CMR17-65" transform="translate(281.910274 0) scale(0.996264)"/>
      <use xlink:href="#CMR17-43" transform="translate(352.471901 0) scale(0.996264)"/>
      <use xlink:href="#CMR17-53" transform="translate(418.981782 0) scale(0.996264)"/>
      <use xlink:href="#CMR17-52" transform="translate(469.877151 0) scale(0.996264)"/>
     </g>
    </g>
   </g>
   <g id="LineCollection_1">
    <path d="M 78.711344 244.10383 
L 78.711344 242.448667 
" clip-path="url(#pc540cd23a0)" style="fill: none; stroke: #1f77b4; stroke-width: 2"/>
    <path d="M 100.070196 237.129191 
L 100.070196 236.398602 
" clip-path="url(#pc540cd23a0)" style="fill: none; stroke: #1f77b4; stroke-width: 2"/>
    <path d="M 121.429047 232.737407 
L 121.429047 232.001298 
" clip-path="url(#pc540cd23a0)" style="fill: none; stroke: #1f77b4; stroke-width: 2"/>
    <path d="M 142.787899 229.113788 
L 142.787899 228.365973 
" clip-path="url(#pc540cd23a0)" style="fill: none; stroke: #1f77b4; stroke-width: 2"/>
    <path d="M 164.146751 226.458481 
L 164.146751 225.711051 
" clip-path="url(#pc540cd23a0)" style="fill: none; stroke: #1f77b4; stroke-width: 2"/>
    <path d="M 185.505602 223.497632 
L 185.505602 222.749061 
" clip-path="url(#pc540cd23a0)" style="fill: none; stroke: #1f77b4; stroke-width: 2"/>
    <path d="M 206.864454 221.694985 
L 206.864454 220.944411 
" clip-path="url(#pc540cd23a0)" style="fill: none; stroke: #1f77b4; stroke-width: 2"/>
    <path d="M 228.223306 219.319227 
L 228.223306 218.566189 
" clip-path="url(#pc540cd23a0)" style="fill: none; stroke: #1f77b4; stroke-width: 2"/>
    <path d="M 249.582157 217.905321 
L 249.582157 217.147112 
" clip-path="url(#pc540cd23a0)" style="fill: none; stroke: #1f77b4; stroke-width: 2"/>
    <path d="M 270.941009 216.028247 
L 270.941009 215.270897 
" clip-path="url(#pc540cd23a0)" style="fill: none; stroke: #1f77b4; stroke-width: 2"/>
    <path d="M 292.299861 214.421135 
L 292.299861 213.664337 
" clip-path="url(#pc540cd23a0)" style="fill: none; stroke: #1f77b4; stroke-width: 2"/>
    <path d="M 313.658712 213.037356 
L 313.658712 212.277041 
" clip-path="url(#pc540cd23a0)" style="fill: none; stroke: #1f77b4; stroke-width: 2"/>
    <path d="M 335.017564 211.639061 
L 335.017564 210.875615 
" clip-path="url(#pc540cd23a0)" style="fill: none; stroke: #1f77b4; stroke-width: 2"/>
    <path d="M 356.376416 209.979282 
L 356.376416 209.216386 
" clip-path="url(#pc540cd23a0)" style="fill: none; stroke: #1f77b4; stroke-width: 2"/>
    <path d="M 377.735268 208.719974 
L 377.735268 207.955022 
" clip-path="url(#pc540cd23a0)" style="fill: none; stroke: #1f77b4; stroke-width: 2"/>
    <path d="M 399.094119 206.943595 
L 399.094119 206.176773 
" clip-path="url(#pc540cd23a0)" style="fill: none; stroke: #1f77b4; stroke-width: 2"/>
    <path d="M 420.452971 205.507996 
L 420.452971 204.734112 
" clip-path="url(#pc540cd23a0)" style="fill: none; stroke: #1f77b4; stroke-width: 2"/>
    <path d="M 441.811823 203.675585 
L 441.811823 202.901015 
" clip-path="url(#pc540cd23a0)" style="fill: none; stroke: #1f77b4; stroke-width: 2"/>
    <path d="M 463.170674 202.664606 
L 463.170674 200.926551 
" clip-path="url(#pc540cd23a0)" style="fill: none; stroke: #1f77b4; stroke-width: 2"/>
    <path d="M 484.529526 203.812344 
L 484.529526 195.879532 
" clip-path="url(#pc540cd23a0)" style="fill: none; stroke: #1f77b4; stroke-width: 2"/>
   </g>
   <g id="LineCollection_2">
    <path d="M 78.711344 224.550495 
L 78.711344 223.106221 
" clip-path="url(#pc540cd23a0)" style="fill: none; stroke: #ff7f0e; stroke-width: 2"/>
    <path d="M 100.070196 210.336095 
L 100.070196 209.717045 
" clip-path="url(#pc540cd23a0)" style="fill: none; stroke: #ff7f0e; stroke-width: 2"/>
    <path d="M 121.429047 200.051299 
L 121.429047 199.442842 
" clip-path="url(#pc540cd23a0)" style="fill: none; stroke: #ff7f0e; stroke-width: 2"/>
    <path d="M 142.787899 191.250081 
L 142.787899 190.652024 
" clip-path="url(#pc540cd23a0)" style="fill: none; stroke: #ff7f0e; stroke-width: 2"/>
    <path d="M 164.146751 184.237667 
L 164.146751 183.643661 
" clip-path="url(#pc540cd23a0)" style="fill: none; stroke: #ff7f0e; stroke-width: 2"/>
    <path d="M 185.505602 177.571832 
L 185.505602 176.982644 
" clip-path="url(#pc540cd23a0)" style="fill: none; stroke: #ff7f0e; stroke-width: 2"/>
    <path d="M 206.864454 171.811247 
L 206.864454 171.220949 
" clip-path="url(#pc540cd23a0)" style="fill: none; stroke: #ff7f0e; stroke-width: 2"/>
    <path d="M 228.223306 166.457291 
L 228.223306 165.870365 
" clip-path="url(#pc540cd23a0)" style="fill: none; stroke: #ff7f0e; stroke-width: 2"/>
    <path d="M 249.582157 161.144041 
L 249.582157 160.554844 
" clip-path="url(#pc540cd23a0)" style="fill: none; stroke: #ff7f0e; stroke-width: 2"/>
    <path d="M 270.941009 156.424143 
L 270.941009 155.832385 
" clip-path="url(#pc540cd23a0)" style="fill: none; stroke: #ff7f0e; stroke-width: 2"/>
    <path d="M 292.299861 152.10646 
L 292.299861 151.50882 
" clip-path="url(#pc540cd23a0)" style="fill: none; stroke: #ff7f0e; stroke-width: 2"/>
    <path d="M 313.658712 147.72293 
L 313.658712 147.121743 
" clip-path="url(#pc540cd23a0)" style="fill: none; stroke: #ff7f0e; stroke-width: 2"/>
    <path d="M 335.017564 143.85167 
L 335.017564 143.249883 
" clip-path="url(#pc540cd23a0)" style="fill: none; stroke: #ff7f0e; stroke-width: 2"/>
    <path d="M 356.376416 140.128505 
L 356.376416 139.521911 
" clip-path="url(#pc540cd23a0)" style="fill: none; stroke: #ff7f0e; stroke-width: 2"/>
    <path d="M 377.735268 136.554997 
L 377.735268 135.942735 
" clip-path="url(#pc540cd23a0)" style="fill: none; stroke: #ff7f0e; stroke-width: 2"/>
    <path d="M 399.094119 132.97323 
L 399.094119 132.359806 
" clip-path="url(#pc540cd23a0)" style="fill: none; stroke: #ff7f0e; stroke-width: 2"/>
    <path d="M 420.452971 129.671262 
L 420.452971 129.050554 
" clip-path="url(#pc540cd23a0)" style="fill: none; stroke: #ff7f0e; stroke-width: 2"/>
    <path d="M 441.811823 126.656671 
L 441.811823 126.031425 
" clip-path="url(#pc540cd23a0)" style="fill: none; stroke: #ff7f0e; stroke-width: 2"/>
    <path d="M 463.170674 124.269659 
L 463.170674 122.851338 
" clip-path="url(#pc540cd23a0)" style="fill: none; stroke: #ff7f0e; stroke-width: 2"/>
    <path d="M 484.529526 124.155131 
L 484.529526 117.717546 
" clip-path="url(#pc540cd23a0)" style="fill: none; stroke: #ff7f0e; stroke-width: 2"/>
   </g>
   <g id="LineCollection_3">
    <path d="M 78.711344 210.405014 
L 78.711344 209.120522 
" clip-path="url(#pc540cd23a0)" style="fill: none; stroke: #2ca02c; stroke-width: 2"/>
    <path d="M 100.070196 189.509736 
L 100.070196 188.958784 
" clip-path="url(#pc540cd23a0)" style="fill: none; stroke: #2ca02c; stroke-width: 2"/>
    <path d="M 121.429047 174.097442 
L 121.429047 173.554754 
" clip-path="url(#pc540cd23a0)" style="fill: none; stroke: #2ca02c; stroke-width: 2"/>
    <path d="M 142.787899 162.035183 
L 142.787899 161.495069 
" clip-path="url(#pc540cd23a0)" style="fill: none; stroke: #2ca02c; stroke-width: 2"/>
    <path d="M 164.146751 151.329651 
L 164.146751 150.789674 
" clip-path="url(#pc540cd23a0)" style="fill: none; stroke: #2ca02c; stroke-width: 2"/>
    <path d="M 185.505602 142.123323 
L 185.505602 141.576061 
" clip-path="url(#pc540cd23a0)" style="fill: none; stroke: #2ca02c; stroke-width: 2"/>
    <path d="M 206.864454 134.018255 
L 206.864454 133.46493 
" clip-path="url(#pc540cd23a0)" style="fill: none; stroke: #2ca02c; stroke-width: 2"/>
    <path d="M 228.223306 126.41668 
L 228.223306 125.853769 
" clip-path="url(#pc540cd23a0)" style="fill: none; stroke: #2ca02c; stroke-width: 2"/>
    <path d="M 249.582157 119.699531 
L 249.582157 119.133186 
" clip-path="url(#pc540cd23a0)" style="fill: none; stroke: #2ca02c; stroke-width: 2"/>
    <path d="M 270.941009 113.814078 
L 270.941009 113.239487 
" clip-path="url(#pc540cd23a0)" style="fill: none; stroke: #2ca02c; stroke-width: 2"/>
    <path d="M 292.299861 108.075716 
L 292.299861 107.496225 
" clip-path="url(#pc540cd23a0)" style="fill: none; stroke: #2ca02c; stroke-width: 2"/>
    <path d="M 313.658712 103.218428 
L 313.658712 102.631185 
" clip-path="url(#pc540cd23a0)" style="fill: none; stroke: #2ca02c; stroke-width: 2"/>
    <path d="M 335.017564 98.658003 
L 335.017564 98.063414 
" clip-path="url(#pc540cd23a0)" style="fill: none; stroke: #2ca02c; stroke-width: 2"/>
    <path d="M 356.376416 94.247196 
L 356.376416 93.648172 
" clip-path="url(#pc540cd23a0)" style="fill: none; stroke: #2ca02c; stroke-width: 2"/>
    <path d="M 377.735268 90.35388 
L 377.735268 89.747549 
" clip-path="url(#pc540cd23a0)" style="fill: none; stroke: #2ca02c; stroke-width: 2"/>
    <path d="M 399.094119 86.136717 
L 399.094119 85.527668 
" clip-path="url(#pc540cd23a0)" style="fill: none; stroke: #2ca02c; stroke-width: 2"/>
    <path d="M 420.452971 82.648434 
L 420.452971 82.029586 
" clip-path="url(#pc540cd23a0)" style="fill: none; stroke: #2ca02c; stroke-width: 2"/>
    <path d="M 441.811823 79.250769 
L 441.811823 78.624763 
" clip-path="url(#pc540cd23a0)" style="fill: none; stroke: #2ca02c; stroke-width: 2"/>
    <path d="M 463.170674 76.635875 
L 463.170674 75.220722 
" clip-path="url(#pc540cd23a0)" style="fill: none; stroke: #2ca02c; stroke-width: 2"/>
    <path d="M 484.529526 76.300596 
L 484.529526 69.84568 
" clip-path="url(#pc540cd23a0)" style="fill: none; stroke: #2ca02c; stroke-width: 2"/>
   </g>
   <g id="line2d_18">
    <path d="M 78.711344 243.276248 
L 100.070196 236.763896 
L 121.429047 232.369352 
L 142.787899 228.73988 
L 164.146751 226.084766 
L 185.505602 223.123346 
L 206.864454 221.319698 
L 228.223306 218.942708 
L 249.582157 217.526216 
L 270.941009 215.649572 
L 292.299861 214.042736 
L 313.658712 212.657198 
L 335.017564 211.257338 
L 356.376416 209.597834 
L 377.735268 208.337498 
L 399.094119 206.560184 
L 420.452971 205.121054 
L 441.811823 203.2883 
L 463.170674 201.795578 
L 484.529526 199.845938 
" clip-path="url(#pc540cd23a0)" style="fill: none; stroke-dasharray: 7.4,3.2; stroke-dashoffset: 0; stroke: #1f77b4; stroke-width: 2"/>
    <defs>
     <path id="m72e0deacc5" d="M 0 2.5 
C 0.663008 2.5 1.29895 2.236584 1.767767 1.767767 
C 2.236584 1.29895 2.5 0.663008 2.5 0 
C 2.5 -0.663008 2.236584 -1.29895 1.767767 -1.767767 
C 1.29895 -2.236584 0.663008 -2.5 0 -2.5 
C -0.663008 -2.5 -1.29895 -2.236584 -1.767767 -1.767767 
C -2.236584 -1.29895 -2.5 -0.663008 -2.5 0 
C -2.5 0.663008 -2.236584 1.29895 -1.767767 1.767767 
C -1.29895 2.236584 -0.663008 2.5 0 2.5 
z
" style="stroke: #1f77b4"/>
    </defs>
    <g clip-path="url(#pc540cd23a0)">
     <use xlink:href="#m72e0deacc5" x="78.711344" y="243.276248" style="fill: #1f77b4; stroke: #1f77b4"/>
     <use xlink:href="#m72e0deacc5" x="100.070196" y="236.763896" style="fill: #1f77b4; stroke: #1f77b4"/>
     <use xlink:href="#m72e0deacc5" x="121.429047" y="232.369352" style="fill: #1f77b4; stroke: #1f77b4"/>
     <use xlink:href="#m72e0deacc5" x="142.787899" y="228.73988" style="fill: #1f77b4; stroke: #1f77b4"/>
     <use xlink:href="#m72e0deacc5" x="164.146751" y="226.084766" style="fill: #1f77b4; stroke: #1f77b4"/>
     <use xlink:href="#m72e0deacc5" x="185.505602" y="223.123346" style="fill: #1f77b4; stroke: #1f77b4"/>
     <use xlink:href="#m72e0deacc5" x="206.864454" y="221.319698" style="fill: #1f77b4; stroke: #1f77b4"/>
     <use xlink:href="#m72e0deacc5" x="228.223306" y="218.942708" style="fill: #1f77b4; stroke: #1f77b4"/>
     <use xlink:href="#m72e0deacc5" x="249.582157" y="217.526216" style="fill: #1f77b4; stroke: #1f77b4"/>
     <use xlink:href="#m72e0deacc5" x="270.941009" y="215.649572" style="fill: #1f77b4; stroke: #1f77b4"/>
     <use xlink:href="#m72e0deacc5" x="292.299861" y="214.042736" style="fill: #1f77b4; stroke: #1f77b4"/>
     <use xlink:href="#m72e0deacc5" x="313.658712" y="212.657198" style="fill: #1f77b4; stroke: #1f77b4"/>
     <use xlink:href="#m72e0deacc5" x="335.017564" y="211.257338" style="fill: #1f77b4; stroke: #1f77b4"/>
     <use xlink:href="#m72e0deacc5" x="356.376416" y="209.597834" style="fill: #1f77b4; stroke: #1f77b4"/>
     <use xlink:href="#m72e0deacc5" x="377.735268" y="208.337498" style="fill: #1f77b4; stroke: #1f77b4"/>
     <use xlink:href="#m72e0deacc5" x="399.094119" y="206.560184" style="fill: #1f77b4; stroke: #1f77b4"/>
     <use xlink:href="#m72e0deacc5" x="420.452971" y="205.121054" style="fill: #1f77b4; stroke: #1f77b4"/>
     <use xlink:href="#m72e0deacc5" x="441.811823" y="203.2883" style="fill: #1f77b4; stroke: #1f77b4"/>
     <use xlink:href="#m72e0deacc5" x="463.170674" y="201.795578" style="fill: #1f77b4; stroke: #1f77b4"/>
     <use xlink:href="#m72e0deacc5" x="484.529526" y="199.845938" style="fill: #1f77b4; stroke: #1f77b4"/>
    </g>
   </g>
   <g id="line2d_19">
    <path d="M 78.711344 223.828358 
L 100.070196 210.02657 
L 121.429047 199.74707 
L 142.787899 190.951052 
L 164.146751 183.940664 
L 185.505602 177.277238 
L 206.864454 171.516098 
L 228.223306 166.163828 
L 249.582157 160.849442 
L 270.941009 156.128264 
L 292.299861 151.80764 
L 313.658712 147.422336 
L 335.017564 143.550776 
L 356.376416 139.825208 
L 377.735268 136.248866 
L 399.094119 132.666518 
L 420.452971 129.360908 
L 441.811823 126.344048 
L 463.170674 123.560498 
L 484.529526 120.936338 
" clip-path="url(#pc540cd23a0)" style="fill: none; stroke-dasharray: 7.4,3.2; stroke-dashoffset: 0; stroke: #ff7f0e; stroke-width: 2"/>
    <defs>
     <path id="me1d48f90a6" d="M 0 2.5 
C 0.663008 2.5 1.29895 2.236584 1.767767 1.767767 
C 2.236584 1.29895 2.5 0.663008 2.5 0 
C 2.5 -0.663008 2.236584 -1.29895 1.767767 -1.767767 
C 1.29895 -2.236584 0.663008 -2.5 0 -2.5 
C -0.663008 -2.5 -1.29895 -2.236584 -1.767767 -1.767767 
C -2.236584 -1.29895 -2.5 -0.663008 -2.5 0 
C -2.5 0.663008 -2.236584 1.29895 -1.767767 1.767767 
C -1.29895 2.236584 -0.663008 2.5 0 2.5 
z
" style="stroke: #ff7f0e"/>
    </defs>
    <g clip-path="url(#pc540cd23a0)">
     <use xlink:href="#me1d48f90a6" x="78.711344" y="223.828358" style="fill: #ff7f0e; stroke: #ff7f0e"/>
     <use xlink:href="#me1d48f90a6" x="100.070196" y="210.02657" style="fill: #ff7f0e; stroke: #ff7f0e"/>
     <use xlink:href="#me1d48f90a6" x="121.429047" y="199.74707" style="fill: #ff7f0e; stroke: #ff7f0e"/>
     <use xlink:href="#me1d48f90a6" x="142.787899" y="190.951052" style="fill: #ff7f0e; stroke: #ff7f0e"/>
     <use xlink:href="#me1d48f90a6" x="164.146751" y="183.940664" style="fill: #ff7f0e; stroke: #ff7f0e"/>
     <use xlink:href="#me1d48f90a6" x="185.505602" y="177.277238" style="fill: #ff7f0e; stroke: #ff7f0e"/>
     <use xlink:href="#me1d48f90a6" x="206.864454" y="171.516098" style="fill: #ff7f0e; stroke: #ff7f0e"/>
     <use xlink:href="#me1d48f90a6" x="228.223306" y="166.163828" style="fill: #ff7f0e; stroke: #ff7f0e"/>
     <use xlink:href="#me1d48f90a6" x="249.582157" y="160.849442" style="fill: #ff7f0e; stroke: #ff7f0e"/>
     <use xlink:href="#me1d48f90a6" x="270.941009" y="156.128264" style="fill: #ff7f0e; stroke: #ff7f0e"/>
     <use xlink:href="#me1d48f90a6" x="292.299861" y="151.80764" style="fill: #ff7f0e; stroke: #ff7f0e"/>
     <use xlink:href="#me1d48f90a6" x="313.658712" y="147.422336" style="fill: #ff7f0e; stroke: #ff7f0e"/>
     <use xlink:href="#me1d48f90a6" x="335.017564" y="143.550776" style="fill: #ff7f0e; stroke: #ff7f0e"/>
     <use xlink:href="#me1d48f90a6" x="356.376416" y="139.825208" style="fill: #ff7f0e; stroke: #ff7f0e"/>
     <use xlink:href="#me1d48f90a6" x="377.735268" y="136.248866" style="fill: #ff7f0e; stroke: #ff7f0e"/>
     <use xlink:href="#me1d48f90a6" x="399.094119" y="132.666518" style="fill: #ff7f0e; stroke: #ff7f0e"/>
     <use xlink:href="#me1d48f90a6" x="420.452971" y="129.360908" style="fill: #ff7f0e; stroke: #ff7f0e"/>
     <use xlink:href="#me1d48f90a6" x="441.811823" y="126.344048" style="fill: #ff7f0e; stroke: #ff7f0e"/>
     <use xlink:href="#me1d48f90a6" x="463.170674" y="123.560498" style="fill: #ff7f0e; stroke: #ff7f0e"/>
     <use xlink:href="#me1d48f90a6" x="484.529526" y="120.936338" style="fill: #ff7f0e; stroke: #ff7f0e"/>
    </g>
   </g>
   <g id="line2d_20">
    <path d="M 78.711344 209.762768 
L 100.070196 189.23426 
L 121.429047 173.826098 
L 142.787899 161.765126 
L 164.146751 151.059662 
L 185.505602 141.849692 
L 206.864454 133.741592 
L 228.223306 126.135224 
L 249.582157 119.416358 
L 270.941009 113.526782 
L 292.299861 107.78597 
L 313.658712 102.924806 
L 335.017564 98.360708 
L 356.376416 93.947684 
L 377.735268 90.050714 
L 399.094119 85.832192 
L 420.452971 82.33901 
L 441.811823 78.937766 
L 463.170674 75.928298 
L 484.529526 73.073138 
" clip-path="url(#pc540cd23a0)" style="fill: none; stroke-dasharray: 7.4,3.2; stroke-dashoffset: 0; stroke: #2ca02c; stroke-width: 2"/>
    <defs>
     <path id="m573b51fef6" d="M 0 2.5 
C 0.663008 2.5 1.29895 2.236584 1.767767 1.767767 
C 2.236584 1.29895 2.5 0.663008 2.5 0 
C 2.5 -0.663008 2.236584 -1.29895 1.767767 -1.767767 
C 1.29895 -2.236584 0.663008 -2.5 0 -2.5 
C -0.663008 -2.5 -1.29895 -2.236584 -1.767767 -1.767767 
C -2.236584 -1.29895 -2.5 -0.663008 -2.5 0 
C -2.5 0.663008 -2.236584 1.29895 -1.767767 1.767767 
C -1.29895 2.236584 -0.663008 2.5 0 2.5 
z
" style="stroke: #2ca02c"/>
    </defs>
    <g clip-path="url(#pc540cd23a0)">
     <use xlink:href="#m573b51fef6" x="78.711344" y="209.762768" style="fill: #2ca02c; stroke: #2ca02c"/>
     <use xlink:href="#m573b51fef6" x="100.070196" y="189.23426" style="fill: #2ca02c; stroke: #2ca02c"/>
     <use xlink:href="#m573b51fef6" x="121.429047" y="173.826098" style="fill: #2ca02c; stroke: #2ca02c"/>
     <use xlink:href="#m573b51fef6" x="142.787899" y="161.765126" style="fill: #2ca02c; stroke: #2ca02c"/>
     <use xlink:href="#m573b51fef6" x="164.146751" y="151.059662" style="fill: #2ca02c; stroke: #2ca02c"/>
     <use xlink:href="#m573b51fef6" x="185.505602" y="141.849692" style="fill: #2ca02c; stroke: #2ca02c"/>
     <use xlink:href="#m573b51fef6" x="206.864454" y="133.741592" style="fill: #2ca02c; stroke: #2ca02c"/>
     <use xlink:href="#m573b51fef6" x="228.223306" y="126.135224" style="fill: #2ca02c; stroke: #2ca02c"/>
     <use xlink:href="#m573b51fef6" x="249.582157" y="119.416358" style="fill: #2ca02c; stroke: #2ca02c"/>
     <use xlink:href="#m573b51fef6" x="270.941009" y="113.526782" style="fill: #2ca02c; stroke: #2ca02c"/>
     <use xlink:href="#m573b51fef6" x="292.299861" y="107.78597" style="fill: #2ca02c; stroke: #2ca02c"/>
     <use xlink:href="#m573b51fef6" x="313.658712" y="102.924806" style="fill: #2ca02c; stroke: #2ca02c"/>
     <use xlink:href="#m573b51fef6" x="335.017564" y="98.360708" style="fill: #2ca02c; stroke: #2ca02c"/>
     <use xlink:href="#m573b51fef6" x="356.376416" y="93.947684" style="fill: #2ca02c; stroke: #2ca02c"/>
     <use xlink:href="#m573b51fef6" x="377.735268" y="90.050714" style="fill: #2ca02c; stroke: #2ca02c"/>
     <use xlink:href="#m573b51fef6" x="399.094119" y="85.832192" style="fill: #2ca02c; stroke: #2ca02c"/>
     <use xlink:href="#m573b51fef6" x="420.452971" y="82.33901" style="fill: #2ca02c; stroke: #2ca02c"/>
     <use xlink:href="#m573b51fef6" x="441.811823" y="78.937766" style="fill: #2ca02c; stroke: #2ca02c"/>
     <use xlink:href="#m573b51fef6" x="463.170674" y="75.928298" style="fill: #2ca02c; stroke: #2ca02c"/>
     <use xlink:href="#m573b51fef6" x="484.529526" y="73.073138" style="fill: #2ca02c; stroke: #2ca02c"/>
    </g>
   </g>
   <g id="patch_3">
    <path d="M 58.420435 289.242938 
L 58.420435 12.042938 
" style="fill: none; stroke: #000000; stroke-width: 0.8; stroke-linejoin: miter; stroke-linecap: square"/>
   </g>
   <g id="patch_4">
    <path d="M 504.820435 289.242938 
L 504.820435 12.042938 
" style="fill: none; stroke: #000000; stroke-width: 0.8; stroke-linejoin: miter; stroke-linecap: square"/>
   </g>
   <g id="patch_5">
    <path d="M 58.420435 289.242938 
L 504.820435 289.242938 
" style="fill: none; stroke: #000000; stroke-width: 0.8; stroke-linejoin: miter; stroke-linecap: square"/>
   </g>
   <g id="patch_6">
    <path d="M 58.420435 12.042938 
L 504.820435 12.042938 
" style="fill: none; stroke: #000000; stroke-width: 0.8; stroke-linejoin: miter; stroke-linecap: square"/>
   </g>
   <g id="legend_1">
    <g id="patch_7">
     <path d="M 68.220435 81.779023 
L 194.27945 81.779023 
Q 197.07945 81.779023 197.07945 78.979023 
L 197.07945 21.842938 
Q 197.07945 19.042938 194.27945 19.042938 
L 68.220435 19.042938 
Q 65.420435 19.042938 65.420435 21.842938 
L 65.420435 78.979023 
Q 65.420435 81.779023 68.220435 81.779023 
z
" style="fill: #ffffff; opacity: 0.8; stroke: #cccccc; stroke-linejoin: miter"/>
    </g>
    <g id="LineCollection_4">
     <path d="M 85.020435 36.542938 
L 85.020435 22.542938 
" style="fill: none; stroke: #1f77b4; stroke-width: 2"/>
    </g>
    <g id="line2d_21">
     <path d="M 71.020435 29.542938 
L 99.020435 29.542938 
" style="fill: none; stroke-dasharray: 7.4,3.2; stroke-dashoffset: 0; stroke: #1f77b4; stroke-width: 2"/>
    </g>
    <g id="line2d_22">
     <g>
      <use xlink:href="#m72e0deacc5" x="85.020435" y="29.542938" style="fill: #1f77b4; stroke: #1f77b4"/>
     </g>
    </g>
    <g id="text_20">
     <!-- 11 timepoints -->
     <g transform="translate(110.220435 34.442938) scale(0.14 -0.14)">
      <use xlink:href="#CMR17-31" transform="scale(0.996264)"/>
      <use xlink:href="#CMR17-31" transform="translate(45.690477 0) scale(0.996264)"/>
      <use xlink:href="#CMR17-74" transform="translate(121.456921 0) scale(0.996264)"/>
      <use xlink:href="#CMR17-69" transform="translate(156.737688 0) scale(0.996264)"/>
      <use xlink:href="#CMR17-6d" transform="translate(181.608747 0) scale(0.996264)"/>
      <use xlink:href="#CMR17-65" transform="translate(258.528337 0) scale(0.996264)"/>
      <use xlink:href="#CMR17-70" transform="translate(299.013997 0) scale(0.996264)"/>
      <use xlink:href="#CMR17-6f" transform="translate(352.511806 0) scale(0.996264)"/>
      <use xlink:href="#CMR17-69" transform="translate(398.202283 0) scale(0.996264)"/>
      <use xlink:href="#CMR17-6e" transform="translate(423.073341 0) scale(0.996264)"/>
      <use xlink:href="#CMR17-74" transform="translate(471.366257 0) scale(0.996264)"/>
      <use xlink:href="#CMR17-73" transform="translate(506.647025 0) scale(0.996264)"/>
     </g>
    </g>
    <g id="LineCollection_5">
     <path d="M 85.020435 56.054967 
L 85.020435 42.054967 
" style="fill: none; stroke: #ff7f0e; stroke-width: 2"/>
    </g>
    <g id="line2d_23">
     <path d="M 71.020435 49.054967 
L 99.020435 49.054967 
" style="fill: none; stroke-dasharray: 7.4,3.2; stroke-dashoffset: 0; stroke: #ff7f0e; stroke-width: 2"/>
    </g>
    <g id="line2d_24">
     <g>
      <use xlink:href="#me1d48f90a6" x="85.020435" y="49.054967" style="fill: #ff7f0e; stroke: #ff7f0e"/>
     </g>
    </g>
    <g id="text_21">
     <!-- 21 timepoints -->
     <g transform="translate(110.220435 53.954967) scale(0.14 -0.14)">
      <defs>
       <path id="CMR17-32" d="M 2669 989 
L 2554 989 
C 2490 536 2438 459 2413 420 
C 2381 369 1920 369 1830 369 
L 602 369 
C 832 619 1280 1072 1824 1597 
C 2214 1967 2669 2402 2669 3035 
C 2669 3790 2067 4224 1395 4224 
C 691 4224 262 3604 262 3030 
C 262 2780 448 2748 525 2748 
C 589 2748 781 2787 781 3010 
C 781 3207 614 3264 525 3264 
C 486 3264 448 3258 422 3245 
C 544 3790 915 4058 1306 4058 
C 1862 4058 2227 3617 2227 3035 
C 2227 2479 1901 2000 1536 1584 
L 262 146 
L 262 0 
L 2515 0 
L 2669 989 
z
" transform="scale(0.015625)"/>
      </defs>
      <use xlink:href="#CMR17-32" transform="scale(0.996264)"/>
      <use xlink:href="#CMR17-31" transform="translate(45.690477 0) scale(0.996264)"/>
      <use xlink:href="#CMR17-74" transform="translate(121.456921 0) scale(0.996264)"/>
      <use xlink:href="#CMR17-69" transform="translate(156.737688 0) scale(0.996264)"/>
      <use xlink:href="#CMR17-6d" transform="translate(181.608747 0) scale(0.996264)"/>
      <use xlink:href="#CMR17-65" transform="translate(258.528337 0) scale(0.996264)"/>
      <use xlink:href="#CMR17-70" transform="translate(299.013997 0) scale(0.996264)"/>
      <use xlink:href="#CMR17-6f" transform="translate(352.511806 0) scale(0.996264)"/>
      <use xlink:href="#CMR17-69" transform="translate(398.202283 0) scale(0.996264)"/>
      <use xlink:href="#CMR17-6e" transform="translate(423.073341 0) scale(0.996264)"/>
      <use xlink:href="#CMR17-74" transform="translate(471.366257 0) scale(0.996264)"/>
      <use xlink:href="#CMR17-73" transform="translate(506.647025 0) scale(0.996264)"/>
     </g>
    </g>
    <g id="LineCollection_6">
     <path d="M 85.020435 75.566995 
L 85.020435 61.566995 
" style="fill: none; stroke: #2ca02c; stroke-width: 2"/>
    </g>
    <g id="line2d_25">
     <path d="M 71.020435 68.566995 
L 99.020435 68.566995 
" style="fill: none; stroke-dasharray: 7.4,3.2; stroke-dashoffset: 0; stroke: #2ca02c; stroke-width: 2"/>
    </g>
    <g id="line2d_26">
     <g>
      <use xlink:href="#m573b51fef6" x="85.020435" y="68.566995" style="fill: #2ca02c; stroke: #2ca02c"/>
     </g>
    </g>
    <g id="text_22">
     <!-- 31 timepoints -->
     <g transform="translate(110.220435 73.466995) scale(0.14 -0.14)">
      <use xlink:href="#CMR17-33" transform="scale(0.996264)"/>
      <use xlink:href="#CMR17-31" transform="translate(45.690477 0) scale(0.996264)"/>
      <use xlink:href="#CMR17-74" transform="translate(121.456921 0) scale(0.996264)"/>
      <use xlink:href="#CMR17-69" transform="translate(156.737688 0) scale(0.996264)"/>
      <use xlink:href="#CMR17-6d" transform="translate(181.608747 0) scale(0.996264)"/>
      <use xlink:href="#CMR17-65" transform="translate(258.528337 0) scale(0.996264)"/>
      <use xlink:href="#CMR17-70" transform="translate(299.013997 0) scale(0.996264)"/>
      <use xlink:href="#CMR17-6f" transform="translate(352.511806 0) scale(0.996264)"/>
      <use xlink:href="#CMR17-69" transform="translate(398.202283 0) scale(0.996264)"/>
      <use xlink:href="#CMR17-6e" transform="translate(423.073341 0) scale(0.996264)"/>
      <use xlink:href="#CMR17-74" transform="translate(471.366257 0) scale(0.996264)"/>
      <use xlink:href="#CMR17-73" transform="translate(506.647025 0) scale(0.996264)"/>
     </g>
    </g>
   </g>
  </g>
 </g>
 <defs>
  <clipPath id="pc540cd23a0">
   <rect x="58.420435" y="12.042938" width="446.4" height="277.2"/>
  </clipPath>
 </defs>
</svg>
